<?xml version="1.0" encoding="utf-8"?>
<!-- Generator: Adobe Illustrator 28.0.0, SVG Export Plug-In . SVG Version: 6.00 Build 0)  -->
<svg version="1.1" xmlns="http://www.w3.org/2000/svg" xmlns:xlink="http://www.w3.org/1999/xlink" x="0px" y="0px"
	 viewBox="0 0 100 125" style="enable-background:new 0 0 100 125;" xml:space="preserve">
<g id="Calque_2">
</g>
<g id="Calque_1">
	<g>
		<path d="M50,2.5c-11.7,0-21.2,9.5-21.2,21.2v20.2c0,11.7,9.5,21.2,21.2,21.2s21.2-9.5,21.2-21.2V23.7C71.2,12,61.7,2.5,50,2.5z
			 M65.2,43.9c0,8.4-6.8,15.2-15.2,15.2s-15.2-6.8-15.2-15.2V23.7c0-8.4,6.8-15.2,15.2-15.2s15.2,6.8,15.2,15.2V43.9z"/>
		<path d="M50,15.1c-1.7,0-3,1.3-3,3v8.1c0,1.7,1.3,3,3,3s3-1.3,3-3v-8.1C53,16.5,51.7,15.1,50,15.1z"/>
		<path d="M56.2,69.6L50,75.9l-6.2-6.2c-1.2-1.2-3.1-1.2-4.3,0s-1.2,3.1,0,4.3l8.4,8.4c0.6,0.6,1.4,0.9,2.1,0.9s1.5-0.3,2.1-0.9
			l8.4-8.4c1.2-1.2,1.2-3.1,0-4.3S57.4,68.5,56.2,69.6z"/>
		<path d="M56.2,84L50,90.2L43.8,84c-1.2-1.2-3.1-1.2-4.3,0s-1.2,3.1,0,4.3l8.4,8.4c0.6,0.6,1.4,0.9,2.1,0.9s1.5-0.3,2.1-0.9
			l8.4-8.4c1.2-1.2,1.2-3.1,0-4.3C59.3,82.8,57.4,82.8,56.2,84z"/>
	</g>
</g>
</svg>
